<mxfile host="www.draw.io" modified="2023-03-24T19:22:50.905Z" agent="Mozilla/5.0 (Windows NT 10.0; Win64; x64) AppleWebKit/537.36 (KHTML, like Gecko) Chrome/111.0.0.0 Safari/537.36 Edg/111.0.1661.51" etag="NWzLO-_CQpQwziVlAxo-" version="21.1.1" type="device">
  <diagram id="R2lEEEUBdFMjLlhIrx00" name="Page-1">
    <mxGraphModel dx="1196" dy="821" grid="1" gridSize="10" guides="1" tooltips="1" connect="1" arrows="1" fold="1" page="1" pageScale="1" pageWidth="850" pageHeight="1100" math="0" shadow="0" extFonts="Permanent Marker^https://fonts.googleapis.com/css?family=Permanent+Marker">
      <root>
        <mxCell id="0" />
        <mxCell id="1" parent="0" />
        <mxCell id="YpshqG5xxVJgqmmtDaMZ-11" style="edgeStyle=orthogonalEdgeStyle;rounded=0;orthogonalLoop=1;jettySize=auto;html=1;entryX=0;entryY=0.75;entryDx=0;entryDy=0;" edge="1" parent="1" source="YpshqG5xxVJgqmmtDaMZ-2" target="YpshqG5xxVJgqmmtDaMZ-5">
          <mxGeometry relative="1" as="geometry" />
        </mxCell>
        <mxCell id="YpshqG5xxVJgqmmtDaMZ-2" value="&lt;font style=&quot;font-size: 18px;&quot;&gt;Driver&lt;/font&gt;" style="rounded=1;whiteSpace=wrap;html=1;" vertex="1" parent="1">
          <mxGeometry x="330" y="780" width="120" height="60" as="geometry" />
        </mxCell>
        <mxCell id="YpshqG5xxVJgqmmtDaMZ-12" style="edgeStyle=orthogonalEdgeStyle;rounded=0;orthogonalLoop=1;jettySize=auto;html=1;entryX=0.417;entryY=1.015;entryDx=0;entryDy=0;entryPerimeter=0;" edge="1" parent="1" source="YpshqG5xxVJgqmmtDaMZ-3" target="YpshqG5xxVJgqmmtDaMZ-5">
          <mxGeometry relative="1" as="geometry" />
        </mxCell>
        <mxCell id="YpshqG5xxVJgqmmtDaMZ-3" value="&lt;font style=&quot;font-size: 18px;&quot;&gt;Bus&lt;/font&gt;" style="rounded=1;whiteSpace=wrap;html=1;" vertex="1" parent="1">
          <mxGeometry x="560" y="780" width="120" height="60" as="geometry" />
        </mxCell>
        <mxCell id="YpshqG5xxVJgqmmtDaMZ-4" value="&lt;font style=&quot;font-size: 18px;&quot;&gt;Track&lt;/font&gt;" style="rounded=1;whiteSpace=wrap;html=1;" vertex="1" parent="1">
          <mxGeometry x="320" y="580" width="120" height="60" as="geometry" />
        </mxCell>
        <mxCell id="YpshqG5xxVJgqmmtDaMZ-10" style="edgeStyle=orthogonalEdgeStyle;rounded=0;orthogonalLoop=1;jettySize=auto;html=1;entryX=1;entryY=0.75;entryDx=0;entryDy=0;" edge="1" parent="1" source="YpshqG5xxVJgqmmtDaMZ-5" target="YpshqG5xxVJgqmmtDaMZ-4">
          <mxGeometry relative="1" as="geometry" />
        </mxCell>
        <mxCell id="YpshqG5xxVJgqmmtDaMZ-14" style="edgeStyle=orthogonalEdgeStyle;rounded=0;orthogonalLoop=1;jettySize=auto;html=1;" edge="1" parent="1" source="YpshqG5xxVJgqmmtDaMZ-5" target="YpshqG5xxVJgqmmtDaMZ-13">
          <mxGeometry relative="1" as="geometry" />
        </mxCell>
        <mxCell id="YpshqG5xxVJgqmmtDaMZ-5" value="&lt;font style=&quot;font-size: 18px;&quot;&gt;Routes&lt;/font&gt;" style="rounded=1;whiteSpace=wrap;html=1;" vertex="1" parent="1">
          <mxGeometry x="570" y="580" width="120" height="60" as="geometry" />
        </mxCell>
        <mxCell id="YpshqG5xxVJgqmmtDaMZ-8" style="edgeStyle=orthogonalEdgeStyle;rounded=0;orthogonalLoop=1;jettySize=auto;html=1;entryX=0;entryY=0.5;entryDx=0;entryDy=0;" edge="1" parent="1" source="YpshqG5xxVJgqmmtDaMZ-6" target="YpshqG5xxVJgqmmtDaMZ-4">
          <mxGeometry relative="1" as="geometry" />
        </mxCell>
        <mxCell id="YpshqG5xxVJgqmmtDaMZ-6" value="&lt;font style=&quot;font-size: 18px;&quot;&gt;Stop&lt;/font&gt;" style="rounded=1;whiteSpace=wrap;html=1;" vertex="1" parent="1">
          <mxGeometry x="200" y="420" width="120" height="60" as="geometry" />
        </mxCell>
        <mxCell id="YpshqG5xxVJgqmmtDaMZ-9" style="edgeStyle=orthogonalEdgeStyle;rounded=0;orthogonalLoop=1;jettySize=auto;html=1;entryX=1;entryY=0.5;entryDx=0;entryDy=0;" edge="1" parent="1" source="YpshqG5xxVJgqmmtDaMZ-7" target="YpshqG5xxVJgqmmtDaMZ-4">
          <mxGeometry relative="1" as="geometry" />
        </mxCell>
        <mxCell id="YpshqG5xxVJgqmmtDaMZ-7" value="&lt;font style=&quot;font-size: 18px;&quot;&gt;Path&lt;/font&gt;" style="rounded=1;whiteSpace=wrap;html=1;" vertex="1" parent="1">
          <mxGeometry x="425" y="420" width="120" height="60" as="geometry" />
        </mxCell>
        <mxCell id="YpshqG5xxVJgqmmtDaMZ-13" value="&lt;font style=&quot;font-size: 18px;&quot;&gt;Message&lt;/font&gt;" style="rounded=1;whiteSpace=wrap;html=1;" vertex="1" parent="1">
          <mxGeometry x="670" y="410" width="120" height="60" as="geometry" />
        </mxCell>
      </root>
    </mxGraphModel>
  </diagram>
</mxfile>
